<?xml version="1.0" encoding="UTF-8" standalone="no"?><svg xmlns="http://www.w3.org/2000/svg" xmlns:xlink="http://www.w3.org/1999/xlink" contentStyleType="text/css" height="170px" preserveAspectRatio="none" style="width:1191px;height:170px;background:#FFFFFF;" version="1.1" viewBox="0 0 1191 170" width="1191px" zoomAndPan="magnify"><defs/><g><!--MD5=[4e1c846757eb3a55c0099aee147b73e6]
class PrizesController--><g id="elem_PrizesController"><rect codeLine="1" fill="#F1F1F1" height="48" id="PrizesController" rx="2.5" ry="2.5" style="stroke:#181818;stroke-width:0.5;" width="132" x="7" y="7"/><ellipse cx="22" cy="23" fill="#ADD1B2" rx="11" ry="11" style="stroke:#181818;stroke-width:1.0;"/><path d="M24,19.5 Q24.2031,19 24.4375,18.75 Q24.6719,18.5 24.9375,18.5 Q25.4063,18.5 25.7031,18.7813 Q26,19.0625 26,19.7188 L26,21.2813 Q26,21.9375 25.7188,22.2188 Q25.4375,22.5 25,22.5 Q24.6094,22.5 24.3594,22.3281 Q24.1094,22.1563 24,21.7031 Q23.9531,21.3906 23.7813,21.2188 Q23.4688,20.8906 22.9063,20.7031 Q22.3438,20.5 21.7813,20.5 Q21.0781,20.5 20.4844,20.7813 Q19.9063,21.0625 19.4531,21.6875 Q19,22.3125 19,23.1719 L19,24.0938 Q19,25.125 19.8438,25.8125 Q20.6875,26.5 22.1875,26.5 Q23.0781,26.5 23.7031,26.2969 Q24.0625,26.1875 24.4688,25.8281 Q24.7344,25.625 24.875,25.5625 Q25.0156,25.5 25.1875,25.5 Q25.5156,25.5 25.75,25.7656 Q26,26.0156 26,26.375 Q26,26.7188 25.6563,27.125 Q25.1563,27.7188 24.3594,28.0469 Q23.3125,28.5 22.0313,28.5 Q20.5313,28.5 19.3281,27.9063 Q18.3594,27.4375 17.6719,26.4219 Q17,25.4063 17,24.2031 L17,23.1094 Q17,21.8594 17.5938,20.7656 Q18.2031,19.6719 19.25,19.0938 Q20.3125,18.5 21.5,18.5 Q22.2188,18.5 22.8438,18.75 Q23.4688,19 24,19.5 Z " fill="#000000"/><text fill="#000000" font-family="sans-serif" font-size="14" lengthAdjust="spacing" textLength="100" x="36" y="28.7285">PrizesController</text><line style="stroke:#181818;stroke-width:0.5;" x1="8" x2="138" y1="39" y2="39"/><line style="stroke:#181818;stroke-width:0.5;" x1="8" x2="138" y1="47" y2="47"/></g><!--MD5=[9cb95efbe5ca4ae348e7ee68e5a67cc7]
class PartiesService--><g id="elem_PartiesService"><rect codeLine="3" fill="#F1F1F1" height="48" id="PartiesService" rx="2.5" ry="2.5" style="stroke:#181818;stroke-width:0.5;" width="123" x="175.5" y="115"/><ellipse cx="190.5" cy="131" fill="#ADD1B2" rx="11" ry="11" style="stroke:#181818;stroke-width:1.0;"/><path d="M192.5,127.5 Q192.7031,127 192.9375,126.75 Q193.1719,126.5 193.4375,126.5 Q193.9063,126.5 194.2031,126.7813 Q194.5,127.0625 194.5,127.7188 L194.5,129.2813 Q194.5,129.9375 194.2188,130.2188 Q193.9375,130.5 193.5,130.5 Q193.1094,130.5 192.8594,130.3281 Q192.6094,130.1563 192.5,129.7031 Q192.4531,129.3906 192.2813,129.2188 Q191.9688,128.8906 191.4063,128.7031 Q190.8438,128.5 190.2813,128.5 Q189.5781,128.5 188.9844,128.7813 Q188.4063,129.0625 187.9531,129.6875 Q187.5,130.3125 187.5,131.1719 L187.5,132.0938 Q187.5,133.125 188.3438,133.8125 Q189.1875,134.5 190.6875,134.5 Q191.5781,134.5 192.2031,134.2969 Q192.5625,134.1875 192.9688,133.8281 Q193.2344,133.625 193.375,133.5625 Q193.5156,133.5 193.6875,133.5 Q194.0156,133.5 194.25,133.7656 Q194.5,134.0156 194.5,134.375 Q194.5,134.7188 194.1563,135.125 Q193.6563,135.7188 192.8594,136.0469 Q191.8125,136.5 190.5313,136.5 Q189.0313,136.5 187.8281,135.9063 Q186.8594,135.4375 186.1719,134.4219 Q185.5,133.4063 185.5,132.2031 L185.5,131.1094 Q185.5,129.8594 186.0938,128.7656 Q186.7031,127.6719 187.75,127.0938 Q188.8125,126.5 190,126.5 Q190.7188,126.5 191.3438,126.75 Q191.9688,127 192.5,127.5 Z " fill="#000000"/><text fill="#000000" font-family="sans-serif" font-size="14" lengthAdjust="spacing" textLength="91" x="204.5" y="136.7285">PartiesService</text><line style="stroke:#181818;stroke-width:0.5;" x1="176.5" x2="297.5" y1="147" y2="147"/><line style="stroke:#181818;stroke-width:0.5;" x1="176.5" x2="297.5" y1="155" y2="155"/></g><!--MD5=[628d26814b5618cdbe27a9a9713fc750]
class PartiesController--><g id="elem_PartiesController"><rect codeLine="5" fill="#F1F1F1" height="48" id="PartiesController" rx="2.5" ry="2.5" style="stroke:#181818;stroke-width:0.5;" width="138" x="431" y="7"/><ellipse cx="446" cy="23" fill="#ADD1B2" rx="11" ry="11" style="stroke:#181818;stroke-width:1.0;"/><path d="M448,19.5 Q448.2031,19 448.4375,18.75 Q448.6719,18.5 448.9375,18.5 Q449.4063,18.5 449.7031,18.7813 Q450,19.0625 450,19.7188 L450,21.2813 Q450,21.9375 449.7188,22.2188 Q449.4375,22.5 449,22.5 Q448.6094,22.5 448.3594,22.3281 Q448.1094,22.1563 448,21.7031 Q447.9531,21.3906 447.7813,21.2188 Q447.4688,20.8906 446.9063,20.7031 Q446.3438,20.5 445.7813,20.5 Q445.0781,20.5 444.4844,20.7813 Q443.9063,21.0625 443.4531,21.6875 Q443,22.3125 443,23.1719 L443,24.0938 Q443,25.125 443.8438,25.8125 Q444.6875,26.5 446.1875,26.5 Q447.0781,26.5 447.7031,26.2969 Q448.0625,26.1875 448.4688,25.8281 Q448.7344,25.625 448.875,25.5625 Q449.0156,25.5 449.1875,25.5 Q449.5156,25.5 449.75,25.7656 Q450,26.0156 450,26.375 Q450,26.7188 449.6563,27.125 Q449.1563,27.7188 448.3594,28.0469 Q447.3125,28.5 446.0313,28.5 Q444.5313,28.5 443.3281,27.9063 Q442.3594,27.4375 441.6719,26.4219 Q441,25.4063 441,24.2031 L441,23.1094 Q441,21.8594 441.5938,20.7656 Q442.2031,19.6719 443.25,19.0938 Q444.3125,18.5 445.5,18.5 Q446.2188,18.5 446.8438,18.75 Q447.4688,19 448,19.5 Z " fill="#000000"/><text fill="#000000" font-family="sans-serif" font-size="14" lengthAdjust="spacing" textLength="106" x="460" y="28.7285">PartiesController</text><line style="stroke:#181818;stroke-width:0.5;" x1="432" x2="568" y1="39" y2="39"/><line style="stroke:#181818;stroke-width:0.5;" x1="432" x2="568" y1="47" y2="47"/></g><!--MD5=[277e7bd1ba2e4523efb2e730da7a96f6]
class IWinnerRepository--><g id="elem_IWinnerRepository"><rect codeLine="7" fill="#F1F1F1" height="48" id="IWinnerRepository" rx="2.5" ry="2.5" style="stroke:#181818;stroke-width:0.5;" width="150" x="334" y="115"/><ellipse cx="349" cy="131" fill="#B4A7E5" rx="11" ry="11" style="stroke:#181818;stroke-width:1.0;"/><path d="M350,128 L350,134 L352,134 L352.4844,134 L353,134.625 L353,135 L353,135.375 L352.4844,136 L352,136 L346,136 L345.5156,136 L345,135.375 L345,135 L345,134.625 L345.5156,134 L346,134 L348,134 L348,128 L346,128 L345.5156,128 L345,127.375 L345,127 L345,126.625 L345.5156,126 L346,126 L352,126 L352.4844,126 L353,126.625 L353,127 L353,127.375 L352.4844,128 L352,128 L350,128 Z " fill="#000000"/><text fill="#000000" font-family="sans-serif" font-size="14" font-style="italic" lengthAdjust="spacing" textLength="118" x="363" y="136.7285">IWinnerRepository</text><line style="stroke:#181818;stroke-width:0.5;" x1="335" x2="483" y1="147" y2="147"/><line style="stroke:#181818;stroke-width:0.5;" x1="335" x2="483" y1="155" y2="155"/></g><!--MD5=[9e6a17b8902e2e09fbfbd9a1292e0f8d]
class IPartiesService--><g id="elem_IPartiesService"><rect codeLine="9" fill="#F1F1F1" height="48" id="IPartiesService" rx="2.5" ry="2.5" style="stroke:#181818;stroke-width:0.5;" width="126" x="174" y="7"/><ellipse cx="189" cy="23" fill="#B4A7E5" rx="11" ry="11" style="stroke:#181818;stroke-width:1.0;"/><path d="M190,20 L190,26 L192,26 L192.4844,26 L193,26.625 L193,27 L193,27.375 L192.4844,28 L192,28 L186,28 L185.5156,28 L185,27.375 L185,27 L185,26.625 L185.5156,26 L186,26 L188,26 L188,20 L186,20 L185.5156,20 L185,19.375 L185,19 L185,18.625 L185.5156,18 L186,18 L192,18 L192.4844,18 L193,18.625 L193,19 L193,19.375 L192.4844,20 L192,20 L190,20 Z " fill="#000000"/><text fill="#000000" font-family="sans-serif" font-size="14" font-style="italic" lengthAdjust="spacing" textLength="94" x="203" y="28.7285">IPartiesService</text><line style="stroke:#181818;stroke-width:0.5;" x1="175" x2="299" y1="39" y2="39"/><line style="stroke:#181818;stroke-width:0.5;" x1="175" x2="299" y1="47" y2="47"/></g><!--MD5=[9dba72328ec4dc0e2e19126e1b539486]
class IPrizeService--><g id="elem_IPrizeService"><rect codeLine="11" fill="#F1F1F1" height="48" id="IPrizeService" rx="2.5" ry="2.5" style="stroke:#181818;stroke-width:0.5;" width="114" x="1070" y="7"/><ellipse cx="1085" cy="23" fill="#B4A7E5" rx="11" ry="11" style="stroke:#181818;stroke-width:1.0;"/><path d="M1086,20 L1086,26 L1088,26 L1088.4844,26 L1089,26.625 L1089,27 L1089,27.375 L1088.4844,28 L1088,28 L1082,28 L1081.5156,28 L1081,27.375 L1081,27 L1081,26.625 L1081.5156,26 L1082,26 L1084,26 L1084,20 L1082,20 L1081.5156,20 L1081,19.375 L1081,19 L1081,18.625 L1081.5156,18 L1082,18 L1088,18 L1088.4844,18 L1089,18.625 L1089,19 L1089,19.375 L1088.4844,20 L1088,20 L1086,20 Z " fill="#000000"/><text fill="#000000" font-family="sans-serif" font-size="14" font-style="italic" lengthAdjust="spacing" textLength="82" x="1099" y="28.7285">IPrizeService</text><line style="stroke:#181818;stroke-width:0.5;" x1="1071" x2="1183" y1="39" y2="39"/><line style="stroke:#181818;stroke-width:0.5;" x1="1071" x2="1183" y1="47" y2="47"/></g><!--MD5=[1664f2ba7863de157f9085acd31edcfc]
class IPartyRepository--><g id="elem_IPartyRepository"><rect codeLine="13" fill="#F1F1F1" height="48" id="IPartyRepository" rx="2.5" ry="2.5" style="stroke:#181818;stroke-width:0.5;" width="137" x="519.5" y="115"/><ellipse cx="534.5" cy="131" fill="#B4A7E5" rx="11" ry="11" style="stroke:#181818;stroke-width:1.0;"/><path d="M535.5,128 L535.5,134 L537.5,134 L537.9844,134 L538.5,134.625 L538.5,135 L538.5,135.375 L537.9844,136 L537.5,136 L531.5,136 L531.0156,136 L530.5,135.375 L530.5,135 L530.5,134.625 L531.0156,134 L531.5,134 L533.5,134 L533.5,128 L531.5,128 L531.0156,128 L530.5,127.375 L530.5,127 L530.5,126.625 L531.0156,126 L531.5,126 L537.5,126 L537.9844,126 L538.5,126.625 L538.5,127 L538.5,127.375 L537.9844,128 L537.5,128 L535.5,128 Z " fill="#000000"/><text fill="#000000" font-family="sans-serif" font-size="14" font-style="italic" lengthAdjust="spacing" textLength="105" x="548.5" y="136.7285">IPartyRepository</text><line style="stroke:#181818;stroke-width:0.5;" x1="520.5" x2="655.5" y1="147" y2="147"/><line style="stroke:#181818;stroke-width:0.5;" x1="520.5" x2="655.5" y1="155" y2="155"/></g><!--MD5=[017b3f5d59520135b8e267e8ec6eb6b0]
class PrizeService--><g id="elem_PrizeService"><rect codeLine="15" fill="#F1F1F1" height="48" id="PrizeService" rx="2.5" ry="2.5" style="stroke:#181818;stroke-width:0.5;" width="110" x="1072" y="115"/><ellipse cx="1087" cy="131" fill="#ADD1B2" rx="11" ry="11" style="stroke:#181818;stroke-width:1.0;"/><path d="M1089,127.5 Q1089.2031,127 1089.4375,126.75 Q1089.6719,126.5 1089.9375,126.5 Q1090.4063,126.5 1090.7031,126.7813 Q1091,127.0625 1091,127.7188 L1091,129.2813 Q1091,129.9375 1090.7188,130.2188 Q1090.4375,130.5 1090,130.5 Q1089.6094,130.5 1089.3594,130.3281 Q1089.1094,130.1563 1089,129.7031 Q1088.9531,129.3906 1088.7813,129.2188 Q1088.4688,128.8906 1087.9063,128.7031 Q1087.3438,128.5 1086.7813,128.5 Q1086.0781,128.5 1085.4844,128.7813 Q1084.9063,129.0625 1084.4531,129.6875 Q1084,130.3125 1084,131.1719 L1084,132.0938 Q1084,133.125 1084.8438,133.8125 Q1085.6875,134.5 1087.1875,134.5 Q1088.0781,134.5 1088.7031,134.2969 Q1089.0625,134.1875 1089.4688,133.8281 Q1089.7344,133.625 1089.875,133.5625 Q1090.0156,133.5 1090.1875,133.5 Q1090.5156,133.5 1090.75,133.7656 Q1091,134.0156 1091,134.375 Q1091,134.7188 1090.6563,135.125 Q1090.1563,135.7188 1089.3594,136.0469 Q1088.3125,136.5 1087.0313,136.5 Q1085.5313,136.5 1084.3281,135.9063 Q1083.3594,135.4375 1082.6719,134.4219 Q1082,133.4063 1082,132.2031 L1082,131.1094 Q1082,129.8594 1082.5938,128.7656 Q1083.2031,127.6719 1084.25,127.0938 Q1085.3125,126.5 1086.5,126.5 Q1087.2188,126.5 1087.8438,126.75 Q1088.4688,127 1089,127.5 Z " fill="#000000"/><text fill="#000000" font-family="sans-serif" font-size="14" lengthAdjust="spacing" textLength="78" x="1101" y="136.7285">PrizeService</text><line style="stroke:#181818;stroke-width:0.5;" x1="1073" x2="1181" y1="147" y2="147"/><line style="stroke:#181818;stroke-width:0.5;" x1="1073" x2="1181" y1="155" y2="155"/></g><!--MD5=[0f3e1c00b1e2b384bd4f472f75904ef7]
class IPrizeRepository--><g id="elem_IPrizeRepository"><rect codeLine="17" fill="#F1F1F1" height="48" id="IPrizeRepository" rx="2.5" ry="2.5" style="stroke:#181818;stroke-width:0.5;" width="136" x="692" y="115"/><ellipse cx="707" cy="131" fill="#B4A7E5" rx="11" ry="11" style="stroke:#181818;stroke-width:1.0;"/><path d="M708,128 L708,134 L710,134 L710.4844,134 L711,134.625 L711,135 L711,135.375 L710.4844,136 L710,136 L704,136 L703.5156,136 L703,135.375 L703,135 L703,134.625 L703.5156,134 L704,134 L706,134 L706,128 L704,128 L703.5156,128 L703,127.375 L703,127 L703,126.625 L703.5156,126 L704,126 L710,126 L710.4844,126 L711,126.625 L711,127 L711,127.375 L710.4844,128 L710,128 L708,128 Z " fill="#000000"/><text fill="#000000" font-family="sans-serif" font-size="14" font-style="italic" lengthAdjust="spacing" textLength="104" x="721" y="136.7285">IPrizeRepository</text><line style="stroke:#181818;stroke-width:0.5;" x1="693" x2="827" y1="147" y2="147"/><line style="stroke:#181818;stroke-width:0.5;" x1="693" x2="827" y1="155" y2="155"/></g><!--MD5=[ba80d136df9fdba3fc020992cc8d08f3]
class IClientPartyRepository--><g id="elem_IClientPartyRepository"><rect codeLine="19" fill="#F1F1F1" height="48" id="IClientPartyRepository" rx="2.5" ry="2.5" style="stroke:#181818;stroke-width:0.5;" width="173" x="863.5" y="115"/><ellipse cx="878.5" cy="131" fill="#B4A7E5" rx="11" ry="11" style="stroke:#181818;stroke-width:1.0;"/><path d="M879.5,128 L879.5,134 L881.5,134 L881.9844,134 L882.5,134.625 L882.5,135 L882.5,135.375 L881.9844,136 L881.5,136 L875.5,136 L875.0156,136 L874.5,135.375 L874.5,135 L874.5,134.625 L875.0156,134 L875.5,134 L877.5,134 L877.5,128 L875.5,128 L875.0156,128 L874.5,127.375 L874.5,127 L874.5,126.625 L875.0156,126 L875.5,126 L881.5,126 L881.9844,126 L882.5,126.625 L882.5,127 L882.5,127.375 L881.9844,128 L881.5,128 L879.5,128 Z " fill="#000000"/><text fill="#000000" font-family="sans-serif" font-size="14" font-style="italic" lengthAdjust="spacing" textLength="141" x="892.5" y="136.7285">IClientPartyRepository</text><line style="stroke:#181818;stroke-width:0.5;" x1="864.5" x2="1035.5" y1="147" y2="147"/><line style="stroke:#181818;stroke-width:0.5;" x1="864.5" x2="1035.5" y1="155" y2="155"/></g><!--MD5=[5d9d7f361cf9aacac4ee237afb90f58a]
class JpaRepository--><g id="elem_JpaRepository"><rect fill="#F1F1F1" height="48" id="JpaRepository" rx="2.5" ry="2.5" style="stroke:#181818;stroke-width:0.5;" width="122" x="613" y="7"/><ellipse cx="628" cy="23" fill="#ADD1B2" rx="11" ry="11" style="stroke:#181818;stroke-width:1.0;"/><path d="M630,19.5 Q630.2031,19 630.4375,18.75 Q630.6719,18.5 630.9375,18.5 Q631.4063,18.5 631.7031,18.7813 Q632,19.0625 632,19.7188 L632,21.2813 Q632,21.9375 631.7188,22.2188 Q631.4375,22.5 631,22.5 Q630.6094,22.5 630.3594,22.3281 Q630.1094,22.1563 630,21.7031 Q629.9531,21.3906 629.7813,21.2188 Q629.4688,20.8906 628.9063,20.7031 Q628.3438,20.5 627.7813,20.5 Q627.0781,20.5 626.4844,20.7813 Q625.9063,21.0625 625.4531,21.6875 Q625,22.3125 625,23.1719 L625,24.0938 Q625,25.125 625.8438,25.8125 Q626.6875,26.5 628.1875,26.5 Q629.0781,26.5 629.7031,26.2969 Q630.0625,26.1875 630.4688,25.8281 Q630.7344,25.625 630.875,25.5625 Q631.0156,25.5 631.1875,25.5 Q631.5156,25.5 631.75,25.7656 Q632,26.0156 632,26.375 Q632,26.7188 631.6563,27.125 Q631.1563,27.7188 630.3594,28.0469 Q629.3125,28.5 628.0313,28.5 Q626.5313,28.5 625.3281,27.9063 Q624.3594,27.4375 623.6719,26.4219 Q623,25.4063 623,24.2031 L623,23.1094 Q623,21.8594 623.5938,20.7656 Q624.2031,19.6719 625.25,19.0938 Q626.3125,18.5 627.5,18.5 Q628.2188,18.5 628.8438,18.75 Q629.4688,19 630,19.5 Z " fill="#000000"/><text fill="#000000" font-family="sans-serif" font-size="14" lengthAdjust="spacing" textLength="90" x="642" y="28.7285">JpaRepository</text><line style="stroke:#181818;stroke-width:0.5;" x1="614" x2="734" y1="39" y2="39"/><line style="stroke:#181818;stroke-width:0.5;" x1="614" x2="734" y1="47" y2="47"/></g><!--MD5=[c034818dc7d01fd1dea9b4546e00adde]
reverse link IPartiesService to PartiesService--><g id="link_IPartiesService_PartiesService"><path codeLine="23" d="M237,75.02 C237,88.58 237,103.04 237,114.68 " fill="none" id="IPartiesService-backto-PartiesService" style="stroke:#181818;stroke-width:1.0;stroke-dasharray:7.0,7.0;"/><polygon fill="none" points="230,75,237,55,244,75,230,75" style="stroke:#181818;stroke-width:1.0;"/></g><!--MD5=[55019f6fc49e3e2a566cb6f3ef3e9ce6]
reverse link JpaRepository to IWinnerRepository--><g id="link_JpaRepository_IWinnerRepository"><path codeLine="24" d="M597.76,62.49 C556.07,79.17 505.25,99.5 466.85,114.86 " fill="none" id="JpaRepository-backto-IWinnerRepository" style="stroke:#181818;stroke-width:1.0;"/><polygon fill="none" points="595.33,55.93,616.5,55,600.53,68.93,595.33,55.93" style="stroke:#181818;stroke-width:1.0;"/></g><!--MD5=[a15361c3def386ef0f123ca9b4500ff3]
reverse link JpaRepository to IPartyRepository--><g id="link_JpaRepository_IPartyRepository"><path codeLine="25" d="M642.6,70.7 C630.64,85.45 617.38,101.79 606.92,114.68 " fill="none" id="JpaRepository-backto-IPartyRepository" style="stroke:#181818;stroke-width:1.0;"/><polygon fill="none" points="637.3,66.12,655.34,55,648.17,74.94,637.3,66.12" style="stroke:#181818;stroke-width:1.0;"/></g><!--MD5=[e217d621060062a39102df2b174afd7c]
reverse link IPrizeService to PrizeService--><g id="link_IPrizeService_PrizeService"><path codeLine="26" d="M1127,75.02 C1127,88.58 1127,103.04 1127,114.68 " fill="none" id="IPrizeService-backto-PrizeService" style="stroke:#181818;stroke-width:1.0;stroke-dasharray:7.0,7.0;"/><polygon fill="none" points="1120,75,1127,55,1134,75,1120,75" style="stroke:#181818;stroke-width:1.0;"/></g><!--MD5=[6d728f8f0680e0742be17b3f113f5fb5]
reverse link JpaRepository to IPrizeRepository--><g id="link_JpaRepository_IPrizeRepository"><path codeLine="27" d="M705.4,70.7 C717.36,85.45 730.62,101.79 741.08,114.68 " fill="none" id="JpaRepository-backto-IPrizeRepository" style="stroke:#181818;stroke-width:1.0;"/><polygon fill="none" points="699.83,74.94,692.66,55,710.7,66.12,699.83,74.94" style="stroke:#181818;stroke-width:1.0;"/></g><!--MD5=[78b2714238090194f160b34f6c67dbb6]
reverse link JpaRepository to IClientPartyRepository--><g id="link_JpaRepository_IClientPartyRepository"><path codeLine="28" d="M752.81,62.27 C796.35,78.99 849.58,99.43 889.75,114.86 " fill="none" id="JpaRepository-backto-IClientPartyRepository" style="stroke:#181818;stroke-width:1.0;"/><polygon fill="none" points="750.05,68.71,733.89,55,755.07,55.64,750.05,68.71" style="stroke:#181818;stroke-width:1.0;"/></g><!--MD5=[d43ae758f1fbd061b8bf15765d0a7b81]
@startuml
class PrizesController {
}
class PartiesService {
}
class PartiesController {
}
interface IWinnerRepository {
}
interface IPartiesService {
}
interface IPrizeService {
}
interface IPartyRepository {
}
class PrizeService {
}
interface IPrizeRepository {
}
interface IClientPartyRepository {
}


IPartiesService <|.. PartiesService
JpaRepository <|- - IWinnerRepository
JpaRepository <|- - IPartyRepository
IPrizeService <|.. PrizeService
JpaRepository <|- - IPrizeRepository
JpaRepository <|- - IClientPartyRepository
@enduml

PlantUML version 1.2022.12(Sun Oct 23 15:12:26 ART 2022)
(GPL source distribution)
Java Runtime: OpenJDK Runtime Environment
JVM: OpenJDK 64-Bit Server VM
Default Encoding: Cp1252
Language: es
Country: MX
--></g></svg>